<?xml version="1.0" encoding="utf-8"?>
<svg viewBox="23.0115966796875 176.3809051513672 385.9766845703125 79.23851013183594" width="385.9766845703125" height="79.23851013183594" xmlns="http://www.w3.org/2000/svg">
  <path id="path2" style="fill:#071159;fill-rule:evenodd" d="m 60.4089,220.1395 -0.609,-15.6219 13.481,-8.4941 13.6126,7.2951 0.692,16.0431 -13.481,8.4935 z" transform="matrix(1, 0, 0, 1, 3.552713678800501e-15, 3.552713678800501e-15)"/>
  <path id="path4" style="fill:#071159;fill-rule:evenodd" d="m 33.6628,217.112 -0.0823,-22.4502 29.2906,-18.2808 14.0091,8.3629 c -10.1028,6.5645 -14.7455,9.3309 -24.9875,15.6991 l -0.1926,5.9751 z" transform="matrix(1, 0, 0, 1, 3.552713678800501e-15, 3.552713678800501e-15)"/>
  <path id="path6" style="fill:#071159;fill-rule:evenodd" d="m 35.0548,248.4071 -12.0432,-19.0814 28.7863,-16.8447 1.1557,12.3346 10.7928,5.589 z" transform="matrix(1, 0, 0, 1, 3.552713678800501e-15, 3.552713678800501e-15)"/>
  <path id="path8" style="fill:#071159;fill-rule:evenodd" d="m 50.128,245.2642 19.919,10.3549 29.8294,-18.2487 -1.8935,-15.6419 c -10.3375,6.1835 -14.3477,8.7856 -24.6876,14.9664 l -5.3995,-2.5663 z" transform="matrix(1, 0, 0, 1, 3.552713678800501e-15, 3.552713678800501e-15)"/>
  <path id="path10" style="fill:#000000;fill-rule:evenodd" d="m 137.7288,208.9907 h 4.5675 v -20.1043 h 7.6822 v -4.1523 c -7.0246,0 -12.9416,0 -19.9314,0 v 4.1523 h 7.6817 z m 40.0811,0 v -24.1871 h -4.5328 v 10.2079 h -11.9035 v -10.2079 h -4.5675 v 24.1871 h 4.5675 v -9.7579 h 11.9035 v 9.7579 z m 26.3786,-4.4984 h -13.5988 v -5.4671 h 13.1145 v -4.2561 h -13.1145 v -5.6056 h 13.5988 v -4.4294 h -18.132 c 0,8.0856 0,16.1944 0,24.2566 h 18.132 z" transform="matrix(1, 0, 0, 1, 3.552713678800501e-15, 3.552713678800501e-15)"/>
  <path id="path12" style="fill:#000000;fill-rule:evenodd" d="m 148.9752,240.4494 c -1.5915,1.5914 -3.9795,2.4566 -6.0899,2.4566 -5.9865,0 -8.3046,-4.187 -8.3394,-8.2008 -0.0347,-4.0485 2.4914,-8.4084 8.3394,-8.4084 2.1104,0 4.2561,0.7267 5.8479,2.2838 l 3.0448,-2.9414 c -2.4914,-2.4566 -5.6056,-3.7023 -8.8927,-3.7023 -8.7546,0 -12.8722,6.4361 -12.8378,12.7683 0.0347,6.2975 3.8408,12.4916 12.8378,12.4916 3.4947,0 6.7127,-1.1418 9.2041,-3.5989 z" transform="matrix(1, 0, 0, 1, 3.552713678800501e-15, 3.552713678800501e-15)"/>
  <path id="path14" style="fill:#000000;fill-rule:evenodd" d="m 176.8417,246.6431 h 4.9828 L 170.959,222.3865 h -4.9827 l -10.8651,24.2566 h 4.9481 l 2.0761,-4.5676 h 12.6645 z m -3.8756,-8.8237 h -8.9969 l 4.4985,-10.3345 z" transform="matrix(1, 0, 0, 1, 3.552713678800501e-15, 3.552713678800501e-15)"/>
  <path id="path16" style="fill:#000000;fill-rule:evenodd" d="m 209.3792,246.3316 -7.336,-8.2698 c 4.6023,-0.9343 6.1251,-4.2909 6.1251,-7.6299 0,-4.2046 -3.0104,-8.0107 -8.7202,-8.0454 -3.8409,0.0347 -7.6818,0 -11.5227,0 v 24.2566 h 4.5676 v -8.097 h 4.3946 l 7.0589,8.097 h 5.4327 z m -9.9311,-19.689 c 2.8722,0 4.1527,1.9437 4.1527,3.8932 0,1.949 -1.2461,3.8927 -4.1527,3.8927 h -6.9551 v -7.7859 z" transform="matrix(1, 0, 0, 1, 3.552713678800501e-15, 3.552713678800501e-15)"/>
  <path id="path18" style="fill:#000000;fill-rule:evenodd" d="m 219.8405,226.7464 h 6.8513 c 5.8132,0 5.8479,8.5817 0,8.5817 h -6.8513 z m 6.8513,-4.3599 c -3.8066,-0.0344 -7.6127,0 -11.4188,0 v 24.2566 h 4.5675 v -7.128 h 6.8513 c 11.8688,0 11.834,-17.1286 0,-17.1286 z" transform="matrix(1, 0, 0, 1, 3.552713678800501e-15, 3.552713678800501e-15)"/>
  <path id="path20" style="fill:#000000;fill-rule:evenodd" d="m 260.7521,242.1446 h -13.5988 v -5.467 h 13.1145 v -4.2561 h -13.1145 v -5.6057 h 13.5988 v -4.4293 h -18.132 c 0,8.0855 0,16.1943 0,24.2566 h 18.132 z" transform="matrix(1, 0, 0, 1, 3.552713678800501e-15, 3.552713678800501e-15)"/>
  <path id="path22" style="fill:#000000;fill-rule:evenodd" d="m 284.9507,237.4271 -11.8688,-15.0406 h -3.7028 v 24.2566 h 4.5676 v -16.3554 l 12.7339,16.3554 v 0 h 2.8376 v -24.2566 h -4.5675 z" transform="matrix(1, 0, 0, 1, 3.552713678800501e-15, 3.552713678800501e-15)"/>
  <path id="path24" style="fill:#000000;fill-rule:evenodd" d="m 303.9932,246.6431 h 4.5675 v -20.1043 h 7.6822 v -4.1523 c -7.0246,0 -12.9416,0 -19.9315,0 v 4.1523 h 7.6818 z" transform="matrix(1, 0, 0, 1, 3.552713678800501e-15, 3.552713678800501e-15)"/>
  <path id="path26" style="fill:#000000;fill-rule:evenodd" d="m 344.5243,246.3316 -7.336,-8.2698 c 4.6022,-0.9343 6.125,-4.2909 6.125,-7.6299 0,-4.2046 -3.0104,-8.0107 -8.7202,-8.0454 -3.8409,0.0347 -7.6818,0 -11.5226,0 v 24.2566 h 4.5675 v -8.097 h 4.3946 l 7.0589,8.097 h 5.4328 z m -9.9312,-19.689 c 2.8723,0 4.1527,1.9437 4.1527,3.8932 0,1.949 -1.2461,3.8927 -4.1527,3.8927 h -6.9551 v -7.7859 z" transform="matrix(1, 0, 0, 1, 3.552713678800501e-15, 3.552713678800501e-15)"/>
  <path id="path28" style="fill:#000000;fill-rule:evenodd" d="m 354.9855,246.6431 v -24.2566 h -4.5332 v 24.2566 z" transform="matrix(1, 0, 0, 1, 3.552713678800501e-15, 3.552713678800501e-15)"/>
  <path id="path30" style="fill:#000000;fill-rule:evenodd" d="m 381.3641,242.1446 h -13.5988 v -5.467 h 13.1145 v -4.2561 h -13.1145 v -5.6057 h 13.5988 v -4.4293 h -18.132 c 0,8.0855 0,16.1943 0,24.2566 h 18.132 z" transform="matrix(1, 0, 0, 1, 3.552713678800501e-15, 3.552713678800501e-15)"/>
  <path id="path32" style="fill:#000000;fill-rule:evenodd" d="m 408.2269,226.4006 c -1.8338,-3.737 -5.7442,-4.8099 -9.516,-4.8099 -4.4637,0.0348 -9.377,2.0762 -9.377,7.0589 0,5.4328 4.5676,6.7475 9.5156,7.336 3.218,0.3458 5.6056,1.2801 5.6056,3.5638 0,2.63 -2.699,3.6333 -5.5709,3.6333 -2.9413,0 -5.7441,-1.1762 -6.8169,-3.8409 l -3.8062,1.9724 c 1.7995,4.4293 5.6056,5.9517 10.5536,5.9517 5.398,0 10.1736,-2.3185 10.1736,-7.7165 0,-5.7785 -4.7061,-7.0932 -9.7583,-7.7161 -2.9066,-0.3461 -5.398,-0.9342 -5.398,-3.0451 0,-1.7995 1.6266,-3.218 5.0175,-3.218 2.6299,0 4.9137,1.3147 5.7441,2.699 z" transform="matrix(1, 0, 0, 1, 3.552713678800501e-15, 3.552713678800501e-15)"/>
  <path id="path34" style="fill:#000000;fill-rule:evenodd" d="m 113.2072,176.3809 v 79.2385 h 2.5819 v -79.2385 z" transform="matrix(1, 0, 0, 1, 3.552713678800501e-15, 3.552713678800501e-15)"/>
</svg>